<svg width="910" height="560" viewBox="0 0 910 560" fill="none" xmlns="http://www.w3.org/2000/svg">
<g id="CompromissoContent" clip-path="url(#clip0_821_3633)">
<g id="Group 2466">
<g id="Compromisso">
<path id="Rectangle 2098" d="M0 100C0 44.7715 44.7715 0 100 0H780C835.228 0 880 44.7715 880 100V430C880 485.228 835.228 530 780 530H100C44.7715 530 0 485.228 0 430V100Z" fill="#FFD500"/>
<g id="Rectangle 2099">
<mask id="path-2-inside-1_821_3633" fill="white">
<path d="M0 100C0 44.7715 44.7715 0 100 0H810C865.228 0 910 44.7715 910 100V460C910 515.228 865.228 560 810 560H100C44.7715 560 0 515.228 0 460V100Z"/>
</mask>
<path d="M0 0H910H0ZM916 460C916 518.542 868.542 566 810 566H106C47.4578 566 0 518.542 0 460C0 511.915 44.7715 554 100 554H810C861.915 554 904 511.915 904 460H916ZM0 560V0V560ZM810 0C868.542 0 916 47.4578 916 106V460C916 518.542 868.542 566 810 566V554C861.915 554 904 511.915 904 460V100C904 44.7715 861.915 0 810 0Z" fill="#FFD500" mask="url(#path-2-inside-1_821_3633)"/>
</g>
</g>
</g>
</g>
<defs>
<clipPath id="clip0_821_3633">
<rect width="910" height="560" fill="white"/>
</clipPath>
</defs>
</svg>
