<svg width="200" height="200" viewBox="0 0 200 200" fill="none" xmlns="http://www.w3.org/2000/svg">
<g id="LogoVector">
<rect width="200" height="200" fill="white"/>
<g id="Logo">
<path id="Vector" fill-rule="evenodd" clip-rule="evenodd" d="M115.241 10.0011C118.833 9.98906 121.621 10.0736 123.603 10.2547C125.238 10.3996 127.839 10.7437 129.363 10.9973C130.905 11.2509 133.191 11.6856 134.473 11.9935C135.755 12.2833 137.799 12.8267 139.025 13.1708C140.251 13.5331 142.463 14.2576 143.949 14.8191C145.436 15.3625 147.851 16.3949 149.338 17.0831C150.824 17.7714 152.775 18.7495 153.704 19.2567C154.633 19.7638 156.584 20.9592 158.071 21.9192C159.557 22.8611 161.806 24.455 163.088 25.4511C164.37 26.4655 166.581 28.3673 167.993 29.7257C169.405 31.066 171.338 33.0222 172.248 34.0727C173.177 35.1233 174.683 36.9526 175.593 38.1481C176.503 39.3435 177.916 41.3721 178.752 42.6762C179.569 43.9803 180.814 46.0814 181.502 47.3855C182.189 48.6896 183.267 50.9174 183.899 52.3664C184.531 53.8154 185.497 56.2968 186.036 57.8907C186.575 59.4847 187.318 61.9661 187.689 63.4151C188.042 64.8641 188.563 67.2187 188.823 68.6677C189.064 70.1167 189.417 72.3083 189.566 73.5581C189.733 74.826 189.919 78.1044 189.975 80.9843C190.031 84.2626 189.994 87.1606 189.863 88.9538C189.733 90.4934 189.473 93.011 189.287 94.5325C189.083 96.0358 188.656 98.5716 188.34 100.129C188.042 101.705 187.448 104.295 187.02 105.889C186.612 107.483 185.757 110.327 185.107 112.228C184.475 114.13 183.416 116.938 182.784 118.477C182.152 120.017 180.833 122.879 179.867 124.817C178.9 126.755 177.6 129.254 176.987 130.341C176.355 131.428 175.091 133.511 174.162 134.96C173.252 136.409 171.821 138.528 171.003 139.669C170.204 140.81 168.625 142.893 167.529 144.288C166.432 145.682 164.667 147.802 163.608 148.997C162.568 150.192 160.468 152.402 156.194 156.604L156.677 158.415C156.956 159.412 157.551 161.169 158.015 162.31C158.48 163.451 159.353 165.334 159.948 166.476C160.542 167.617 161.583 169.41 162.27 170.46C162.939 171.511 164.073 173.141 164.816 174.083C165.541 175.025 166.767 176.528 167.529 177.434C168.309 178.339 170.223 180.332 171.821 181.889C173.4 183.447 175.37 185.276 176.188 185.965C177.005 186.653 177.971 187.45 178.324 187.722C178.752 188.048 178.9 188.283 178.789 188.392C178.696 188.482 177.674 188.736 176.559 188.935C175.444 189.134 173.549 189.424 172.378 189.569C171.171 189.732 168.179 189.913 165.503 189.968C162.475 190.04 159.855 189.986 158.257 189.859C156.882 189.732 154.578 189.442 153.147 189.207C151.716 188.971 149.542 188.537 148.316 188.229C147.089 187.939 144.99 187.323 143.67 186.87C142.351 186.436 140.251 185.657 139.025 185.131C137.799 184.624 135.959 183.773 134.937 183.248C133.915 182.723 132.336 181.853 131.407 181.31C130.496 180.766 128.768 179.68 125.461 177.397L123.417 178.285C122.302 178.774 119.998 179.698 118.307 180.332C116.616 180.947 113.977 181.853 112.454 182.324C110.912 182.777 108.162 183.519 106.322 183.954C104.482 184.407 101.77 184.968 100.283 185.222C98.7966 185.476 96.1209 185.838 94.3371 186.055C92.2931 186.291 89.3016 186.454 86.2542 186.526C83.2255 186.599 80.3454 186.544 78.543 186.417C76.9636 186.291 74.6595 186.073 73.4331 185.928C72.2068 185.784 69.7355 185.367 67.9517 185.023C66.1679 184.661 63.4364 184.027 61.9127 183.592C60.3705 183.157 58.2894 182.505 57.2674 182.143C56.2455 181.781 54.6103 181.147 53.6441 180.748C52.6779 180.35 50.8011 179.498 49.4633 178.846C48.1254 178.212 46.2487 177.216 45.2825 176.673C44.3163 176.111 42.5139 175.007 41.2875 174.192C40.0612 173.395 38.0172 171.909 36.7351 170.931C35.453 169.935 33.0189 167.762 31.328 166.113C29.6371 164.465 27.4631 162.183 26.5154 161.042C25.5678 159.901 24.1927 158.144 23.4681 157.148C22.7434 156.151 21.4985 154.268 20.6995 152.982C19.8819 151.696 18.6184 149.395 17.8565 147.91C17.0947 146.407 15.9798 143.962 15.3852 142.476C14.772 140.973 13.9545 138.691 13.5271 137.405C13.1183 136.119 12.4865 133.873 12.1335 132.424C11.7619 130.975 11.2788 128.566 11.0186 127.081C10.7585 125.577 10.424 122.933 10.2568 121.194C9.99665 118.658 9.95949 116.829 10.0338 112.047C10.1081 108.298 10.2382 105.219 10.424 103.806C10.5913 102.556 10.8142 100.981 10.9257 100.274C11.0186 99.5678 11.3345 97.9014 11.5761 96.5611C11.8362 95.2207 12.4308 92.6488 12.8953 90.8556C13.3599 89.0625 14.1589 86.3275 14.6606 84.7879C15.1622 83.2483 16.2585 80.3141 17.0947 78.2674C17.9309 76.2207 19.4917 72.7974 20.588 70.6601C21.6843 68.5228 23.1894 65.7516 23.9326 64.5018C24.6573 63.2521 26.0509 61.0604 27.0171 59.6114C28.0019 58.1624 29.4141 56.1338 30.1945 55.0833C30.9749 54.0328 32.5357 52.0404 33.6692 50.6457C34.8212 49.2511 36.5307 47.2587 37.4784 46.2081C38.426 45.1576 40.3399 43.1833 41.7335 41.8068C43.1271 40.4302 45.3382 38.3473 46.6761 37.1881C48.0139 36.0108 49.965 34.3625 51.0427 33.5112C52.1204 32.6599 54.1272 31.1385 55.5022 30.1423C56.8772 29.1461 59.2185 27.5522 60.705 26.5922C62.1915 25.6504 64.7371 24.1289 66.3723 23.2052C68.0074 22.2996 70.7574 20.8687 72.5041 20.0355C74.2507 19.2023 77.0007 17.9707 78.6359 17.3186C80.271 16.6484 83.4484 15.5074 85.6968 14.7828C87.9451 14.0402 91.3269 13.0803 93.2222 12.6275C95.1175 12.1746 97.7932 11.6132 99.1682 11.3596C100.543 11.1241 102.773 10.78 104.092 10.617C105.412 10.4539 107.251 10.2547 108.18 10.1823C109.109 10.0917 112.268 10.0192 115.241 10.0011V10.0011ZM81.1444 44.6867C80.0667 44.8497 78.32 45.1757 77.2423 45.4112C76.1646 45.6467 74.3808 46.1538 73.2473 46.5161C72.1139 46.8783 70.3301 47.5304 69.2524 47.9651C68.1746 48.3998 66.3351 49.2511 65.1645 49.8669C63.9938 50.4646 61.9871 51.6238 60.705 52.4389C59.4229 53.2539 57.509 54.6124 56.4313 55.4456C55.3536 56.2787 53.2167 58.1987 51.693 59.702C50.1508 61.1872 48.1626 63.3607 47.2521 64.5018C46.3416 65.6429 45.0967 67.3636 44.4463 68.3055C43.8146 69.2473 42.8298 70.8412 42.2723 71.8374C41.7149 72.8336 40.7858 74.663 40.2284 75.9127C39.6524 77.1625 38.9091 79.0281 38.5375 80.0786C38.1845 81.1292 37.6642 82.7955 37.404 83.7917C37.1439 84.7879 36.7537 86.6716 36.5121 87.9576C36.1591 89.9681 36.1034 90.9643 36.1034 94.8404C36.1034 98.3904 36.1591 99.7489 36.4192 101.18C36.605 102.176 36.9953 103.897 37.2926 104.983C37.5899 106.07 38.1101 107.7 38.4632 108.606C38.8162 109.512 39.448 110.906 39.8753 111.739C40.2841 112.554 40.9902 113.768 41.399 114.456C41.8264 115.126 42.644 116.286 43.22 117.028C43.796 117.771 44.7808 118.93 45.4126 119.6L46.5832 120.832C45.171 123.567 44.1862 125.215 43.4801 126.266C42.774 127.316 41.6406 128.82 40.9902 129.616C40.3399 130.413 38.8348 132.025 37.6642 133.221C36.4936 134.398 34.8027 136.01 33.8922 136.789L32.2756 138.22C35.453 138.22 37.3111 138.093 38.4446 137.948C39.5966 137.803 41.5105 137.441 42.6811 137.151C43.8517 136.862 45.5241 136.372 46.3974 136.046C47.2707 135.739 49.1474 134.923 50.5782 134.253C52.0089 133.565 54.09 132.406 55.2235 131.699C56.3384 130.975 57.8063 129.979 58.4752 129.49L59.683 128.566C61.7084 129.164 62.7861 129.453 63.3992 129.598C64.0124 129.743 65.4804 130.015 66.651 130.178C68.1746 130.413 69.8655 130.504 72.5041 130.504C75.347 130.486 76.8335 130.395 78.8217 130.106C80.2525 129.888 82.538 129.417 83.8758 129.073C85.2323 128.729 87.2948 128.095 88.4282 127.697C89.5803 127.28 91.4012 126.537 92.4789 126.048C93.5567 125.559 95.1732 124.744 96.1023 124.237C97.0128 123.712 98.6479 122.734 99.7256 122.027C100.803 121.339 102.68 119.963 103.906 119.003C105.133 118.043 107.27 116.123 108.645 114.746C110.02 113.351 111.729 111.54 112.417 110.689C113.123 109.838 114.442 108.044 115.353 106.704C116.282 105.364 117.657 103.082 118.4 101.633C119.143 100.184 120.035 98.3542 120.351 97.5573C120.685 96.7603 121.206 95.42 121.503 94.5687C121.8 93.7174 122.283 92.0873 122.581 90.9462C122.878 89.8051 123.25 88.1387 123.398 87.2331C123.565 86.3456 123.788 84.2989 123.918 82.705C124.086 80.4409 124.086 79.1911 123.918 76.9995C123.788 75.4599 123.473 73.1778 123.212 71.928C122.952 70.6782 122.413 68.6858 122.005 67.4904C121.596 66.295 120.815 64.4294 120.277 63.3245C119.719 62.2378 118.753 60.5533 118.121 59.6114C117.471 58.6696 116.467 57.3293 115.891 56.6229C115.297 55.9346 114.07 54.6486 113.178 53.7973C112.268 52.946 111.023 51.8774 110.41 51.4246C109.797 50.9717 108.663 50.211 107.901 49.722C107.14 49.2511 105.634 48.436 104.557 47.9107C103.479 47.3855 101.602 46.6247 100.376 46.2263C99.1496 45.8097 97.18 45.2844 96.0094 45.0308C94.8388 44.7954 93.055 44.5237 92.0516 44.415C91.0668 44.3063 88.9299 44.2339 87.3134 44.252C85.7154 44.252 84.0988 44.3063 83.7457 44.3426C83.3927 44.3788 82.2221 44.5237 81.1444 44.6867V44.6867ZM131.314 64.3207C130.348 64.5199 129.047 64.8279 128.434 65.009C127.709 65.2263 127.337 65.4437 127.356 65.6067C127.375 65.7516 127.635 66.8021 127.932 67.9432C128.248 69.0843 128.62 70.805 128.787 71.7469C128.954 72.6887 129.177 74.6992 129.27 76.1844C129.419 78.0681 129.419 79.7526 129.27 81.7088C129.177 83.2483 128.954 85.3313 128.805 86.3275C128.638 87.3237 128.304 89.0806 128.044 90.2217C127.783 91.3628 127.17 93.4819 126.669 94.9309C126.185 96.3799 125.442 98.3723 124.996 99.3685C124.569 100.365 123.77 102.031 123.212 103.082C122.674 104.132 121.689 105.835 121.057 106.885C120.407 107.936 119.347 109.512 118.697 110.417C118.047 111.323 116.876 112.826 116.096 113.768C115.334 114.71 113.327 116.829 111.673 118.477C110.001 120.126 108.645 121.484 108.645 121.52C108.645 121.538 109.258 121.991 109.983 122.534C110.726 123.06 112.008 123.875 112.825 124.328C113.643 124.799 115.037 125.451 115.929 125.813C116.839 126.157 118.381 126.646 119.366 126.882C120.369 127.135 121.819 127.425 122.581 127.534C123.342 127.642 125.219 127.733 126.761 127.733C128.322 127.733 130.403 127.606 131.5 127.461C132.577 127.298 134.491 126.9 135.773 126.555C137.055 126.211 138.932 125.596 139.954 125.197L141.812 124.454C143.392 125.541 144.599 126.229 145.529 126.682C146.458 127.135 147.87 127.715 148.687 127.986C149.505 128.24 150.88 128.566 151.753 128.711C152.627 128.874 154.448 128.983 155.785 128.983C157.142 128.983 158.87 128.874 159.632 128.765L161.007 128.53C158.405 126.139 157.086 124.762 156.417 123.911C155.748 123.06 154.801 121.647 154.336 120.741C153.853 119.836 153.314 118.64 153.128 118.079L152.775 117.046C154.819 115 155.934 113.75 156.584 112.953C157.235 112.156 158.257 110.779 158.851 109.874C159.464 108.968 160.356 107.519 160.858 106.614C161.341 105.708 162.122 104.042 162.605 102.9C163.069 101.759 163.701 99.8757 163.998 98.7346C164.314 97.5935 164.704 95.7098 164.872 94.5687C165.113 92.9567 165.15 91.725 165.076 89.1349C165.002 86.6897 164.872 85.3132 164.574 84.0634C164.37 83.1215 163.943 81.6363 163.645 80.7669C163.329 79.8794 162.753 78.5028 162.326 77.6878C161.899 76.8546 161.081 75.4962 160.505 74.6449C159.929 73.7936 158.758 72.3808 157.885 71.4933C157.012 70.6058 155.674 69.4285 154.912 68.867C154.15 68.3055 152.942 67.5085 152.218 67.1282C151.493 66.7297 150.211 66.1138 149.338 65.7516C148.464 65.3893 146.959 64.8641 145.993 64.6105C145.027 64.3569 143.299 64.0128 142.184 63.8679C141.069 63.723 139.174 63.6143 138.003 63.6143C136.832 63.6324 135.234 63.7049 134.473 63.7954C133.711 63.886 132.28 64.1215 131.314 64.3207V64.3207ZM102.234 79.9518C103.46 79.9881 104.111 80.1149 104.65 80.3866C105.058 80.5858 105.709 81.0929 106.08 81.5095C106.471 81.908 106.935 82.5238 107.102 82.8499C107.363 83.2846 107.437 83.8642 107.437 85.2407C107.437 86.9795 107.4 87.1425 106.768 88.4104C106.285 89.3885 105.765 90.0405 105.003 90.7469C104.39 91.2722 103.609 91.8518 103.256 92.0329C102.903 92.2141 102.104 92.5039 101.491 92.6669C100.71 92.8842 100.042 92.9567 99.2611 92.8842C98.5736 92.8118 97.756 92.5763 97.1243 92.2684C96.4739 91.9424 95.8793 91.4533 95.4334 90.8556C95.0432 90.3666 94.6344 89.624 94.5043 89.2255C94.3928 88.827 94.2999 87.9757 94.2999 87.3237C94.2999 86.6173 94.4671 85.7479 94.6901 85.1502C94.8945 84.6068 95.3962 83.7011 95.7864 83.1578C96.1766 82.6144 96.957 81.8356 97.5145 81.4371C98.0719 81.0386 98.9824 80.5315 99.5398 80.296C100.413 79.9519 100.822 79.8975 102.234 79.9518V79.9518ZM81.9619 81.5458C82.4822 81.6001 83.2441 81.8356 83.6528 82.0348C84.0616 82.234 84.6934 82.7231 85.065 83.1034C85.4366 83.4838 85.9012 84.0815 86.087 84.4257C86.3657 84.9147 86.44 85.4581 86.44 86.8708C86.44 88.5553 86.4029 88.7727 85.8083 89.95C85.4181 90.765 84.8235 91.5801 84.136 92.2322C83.5599 92.7937 82.668 93.4457 82.1663 93.6993C81.6461 93.9529 80.7727 94.2608 80.2153 94.3876C79.6207 94.5143 78.766 94.5687 78.1714 94.5144C77.6139 94.4419 76.722 94.2064 76.2203 93.9529C75.7001 93.7174 75.0497 93.2465 74.7524 92.9023C74.4551 92.5763 74.0092 91.8518 73.749 91.3084C73.3588 90.439 73.3031 90.113 73.3588 88.7727C73.4146 87.4504 73.526 87.0339 74.0835 85.9652C74.4365 85.2588 75.1426 84.2989 75.6629 83.7917C76.1646 83.2846 77.1308 82.6144 77.7997 82.2884C78.4687 81.9623 79.4535 81.6363 80.0109 81.5639C80.5498 81.4914 81.4417 81.4733 81.9619 81.5458V81.5458ZM60.705 83.1215C61.1695 83.1578 61.9127 83.357 62.3773 83.5563C62.8418 83.7374 63.5293 84.2083 63.9195 84.5706C64.3097 84.9328 64.7928 85.5486 64.9972 85.929C65.1831 86.2912 65.4246 87.0339 65.4989 87.5591C65.5733 88.0663 65.5918 88.9176 65.5361 89.4066C65.4618 89.9138 65.1645 90.8375 64.8486 91.4896C64.5327 92.1416 63.9567 93.0291 63.5665 93.4638C63.1577 93.9166 62.3773 94.5687 61.8198 94.9309C61.2624 95.2932 60.259 95.7279 59.5901 95.909C58.7168 96.1445 58.0664 96.2169 57.2674 96.1264C56.6542 96.072 55.7252 95.8366 55.2235 95.583C54.7032 95.3475 54.0529 94.8766 53.7556 94.5325C53.4583 94.2064 53.0123 93.4819 52.7522 92.9386C52.3991 92.1778 52.2876 91.6526 52.3062 90.6745C52.3062 89.8775 52.4549 89.0444 52.6964 88.4104C52.9008 87.867 53.4025 86.9614 53.7927 86.418C54.1829 85.8747 54.9262 85.1139 55.4279 84.7517C55.9296 84.3894 56.7472 83.9185 57.2674 83.683C57.7691 83.4657 58.5681 83.2302 59.0326 83.1578C59.4972 83.0853 60.2404 83.0672 60.705 83.1215V83.1215ZM148.78 90.0405C149.133 90.0405 149.765 90.1311 150.174 90.2398C150.638 90.3666 151.252 90.765 151.772 91.2903C152.366 91.8518 152.719 92.3771 152.868 92.9386C152.998 93.3914 153.054 94.1159 152.998 94.5687C152.942 95.0215 152.757 95.746 152.552 96.1988C152.366 96.6516 151.828 97.4124 151.363 97.9014C150.917 98.3723 150.118 98.9881 149.616 99.2417C148.855 99.6221 148.427 99.7127 147.294 99.7308C146.235 99.7308 145.714 99.6402 145.157 99.3504C144.711 99.1331 144.172 98.6259 143.8 98.0825C143.447 97.5754 143.15 96.8509 143.076 96.3799C143.02 95.9271 143.057 95.1664 143.187 94.6592C143.299 94.1702 143.708 93.3189 144.079 92.7755C144.469 92.2322 145.101 91.5439 145.51 91.236C145.9 90.9281 146.662 90.5296 147.182 90.3666C147.703 90.1854 148.427 90.0587 148.78 90.0405V90.0405ZM133.469 91.3628C134.547 91.399 134.919 91.4895 135.55 91.9061C135.978 92.1778 136.554 92.7755 136.832 93.2646C137.278 93.971 137.353 94.3151 137.353 95.3838C137.334 96.4705 137.241 96.8146 136.702 97.8108C136.349 98.4448 135.718 99.2417 135.309 99.5859C134.9 99.9119 134.194 100.365 133.729 100.564C133.265 100.781 132.522 100.981 132.057 101.035C131.593 101.089 130.849 101.035 130.385 100.908C129.809 100.763 129.27 100.419 128.694 99.8394C128.099 99.278 127.746 98.7527 127.598 98.1912C127.468 97.7384 127.412 96.9777 127.486 96.4705C127.542 95.9815 127.802 95.1664 128.044 94.6592C128.285 94.1702 128.935 93.337 129.493 92.848C130.032 92.3408 130.849 91.7975 131.314 91.6163C131.871 91.4171 132.596 91.3265 133.469 91.3628V91.3628Z" fill="#FFD500"/>
</g>
</g>
</svg>
