<svg width="288" height="64" viewBox="0 0 288 64" fill="none" xmlns="http://www.w3.org/2000/svg">
<g id="MessageThree">
<g id="Frame" clip-path="url(#clip0_760_3654)">
<path id="Union 1" d="M49.5936 15.4215L276.115 15.4215C278.261 15.4215 280 16.8612 280 18.6366L280 50.7849C280 52.5608 278.261 54 276.115 54L11.886 54C9.74018 54 8 52.5608 8 50.7849L8 18.6366C8 16.8612 9.74018 15.4215 11.886 15.4215L31.654 15.4215L40.6242 7.99998L49.5936 15.4215Z" fill="#5A007A"/>
<path id="Hey! How are you doi" d="M26.7002 38.352C28.0602 38.352 29.3082 37.936 29.8682 36.64L32.0602 36.656C31.4522 39.104 29.0362 40.112 26.7002 40.112C23.6602 40.112 21.0842 38.592 21.0842 34.88C21.0842 31.088 23.6602 29.664 26.7002 29.664C29.4842 29.664 31.6762 30.896 32.1562 33.456L29.9802 33.456C29.5322 31.936 28.2682 31.408 26.7002 31.408C24.7002 31.408 23.1962 32.24 23.1962 34.88C23.1962 37.44 24.7002 38.352 26.7002 38.352ZM35.9571 40L33.9091 40L33.9091 28.544L35.9571 28.544L35.9571 40ZM37.9819 30.144C37.9819 29.648 38.3979 29.024 39.2459 29.024C40.0779 29.024 40.5099 29.6 40.5099 30.112C40.5099 30.624 40.1259 31.264 39.2459 31.264C38.3979 31.264 37.9819 30.656 37.9819 30.144ZM40.2699 40L38.2219 40L38.2219 32.128L40.2699 32.128L40.2699 40ZM50.4224 43.248L48.3744 43.248L48.3744 38.288C47.9424 39.296 46.8544 40.032 45.8144 40.08C43.4144 40.192 41.9584 38.416 41.9584 36.064C41.9584 33.696 43.4784 32.048 45.8784 32.048C47.1424 32.048 48.0384 32.912 48.4224 33.872L48.4224 32.112L50.4224 32.112L50.4224 43.248ZM46.2144 38.4C47.5584 38.4 48.3904 37.36 48.3904 36.064C48.3904 34.784 47.5424 33.728 46.2144 33.728C44.8544 33.728 44.0224 34.768 44.0224 36.064C44.0224 37.36 44.8704 38.4 46.2144 38.4ZM60.2111 40L58.2271 40L58.2271 38.208C57.7951 39.312 57.0111 40.048 55.6991 40.096C53.4111 40.16 52.4511 38.688 52.4511 36.624L52.4511 32.128L54.4991 32.128L54.4991 36.464C54.4991 37.584 54.8191 38.448 56.1791 38.448C57.5231 38.448 58.1471 37.616 58.1471 36.336L58.1471 32.128L60.1951 32.128L60.2111 40ZM67.9946 37.472L69.7866 37.472C69.5626 39.536 67.7866 40 65.8986 40C63.4506 40 61.7546 38.688 61.7546 36.032C61.7546 34.432 62.5706 32.016 65.9466 32.016C68.6666 32.016 69.9626 33.776 69.8986 36.496L63.6746 36.496C63.6906 37.648 64.5226 38.448 65.9946 38.448C67.4506 38.448 67.8666 37.92 67.9946 37.472ZM63.7066 35.504L68.0106 35.504C67.9306 34.464 67.3066 33.696 65.8346 33.696C64.6186 33.696 63.8186 34.496 63.7066 35.504ZM77.5668 40L75.5188 40L75.5188 32.144L77.5188 32.144L77.5188 34.24C78.0468 32.816 79.2788 32.096 80.3188 32.08C82.8628 32.016 83.3108 33.776 83.3108 35.52L83.3108 40L81.2628 40L81.2628 35.664C81.2628 34.48 80.7668 33.776 79.5988 33.776C78.2388 33.776 77.5668 34.64 77.5668 35.952L77.5668 40ZM84.8956 36.064C84.8956 33.52 86.3836 32.048 89.1356 32.048C91.8876 32.048 93.3756 33.536 93.3756 36.064C93.3756 38.944 91.5036 40.08 89.1356 40.08C86.7836 40.08 84.8956 38.944 84.8956 36.064ZM89.1356 38.4C90.4796 38.4 91.3916 37.856 91.3916 36.064C91.3916 34.272 90.4796 33.728 89.1356 33.728C87.8076 33.728 86.8796 34.272 86.8796 36.064C86.8796 37.84 87.8076 38.4 89.1356 38.4ZM102.058 34.496L100.346 34.496C100.282 33.76 99.4821 33.504 98.3621 33.504C97.3861 33.488 96.5541 33.84 96.6341 34.528C96.7781 35.936 102.266 34.544 102.25 37.632C102.234 39.648 100.282 40.112 98.6341 40.112C96.0261 40.112 94.7301 39.008 94.6981 37.376L96.4581 37.376C96.5221 38.224 97.7861 38.496 98.4901 38.512C99.0981 38.544 100.442 38.368 100.442 37.664C100.442 36.304 94.7941 37.616 94.7941 34.416C94.7941 32.8 96.0901 31.936 98.4101 31.936C100.842 31.936 101.978 32.928 102.058 34.496ZM111.652 38.4C112.612 38.4 113.524 38.176 113.764 37.152L115.812 37.12C115.476 39.408 113.668 40.08 111.652 40.08C109.3 40.08 107.412 38.944 107.412 36.064C107.412 33.52 108.9 32.048 111.652 32.048C114.26 32.048 115.54 33.28 115.844 35.248L113.86 35.264C113.652 34.048 112.804 33.728 111.652 33.728C110.324 33.728 109.396 34.272 109.396 36.064C109.396 37.84 110.324 38.4 111.652 38.4ZM124.395 40C123.611 39.984 122.795 39.552 122.779 38.56C122.427 39.536 121.547 40.064 120.491 40.16C118.955 40.304 117.227 39.632 117.115 37.968C116.971 35.792 118.795 35.296 120.539 35.296L122.779 35.296L122.779 34.48C122.779 33.824 122.107 33.472 121.051 33.472C120.075 33.456 119.387 33.808 119.387 34.528L117.563 34.528C117.515 32.624 119.115 31.936 121.003 31.936C123.387 31.936 124.795 32.848 124.795 34.304L124.795 38.016C124.795 38.368 124.955 38.608 125.307 38.608L125.419 38.608L125.419 40L124.395 40ZM119.067 37.6C119.003 38.464 119.707 38.784 120.555 38.784C121.467 38.768 122.555 38.208 122.779 37.28L122.779 36.448L120.747 36.464C119.979 36.48 119.147 36.624 119.067 37.6ZM126.987 40L126.987 32.128L129.003 32.128L129.003 34.24C129.371 32.784 130.299 32.08 131.419 32.08L132.651 32.08L132.651 33.888L131.131 33.92C129.995 33.936 129.035 35.04 129.035 36.256L129.035 40L126.987 40ZM141.923 40L139.923 40L139.923 38.4C139.427 39.504 138.179 40.08 137.331 40.08C134.963 40.08 133.475 38.464 133.475 36.064C133.475 33.648 134.963 32.048 137.331 32.048C138.163 32.048 139.363 32.512 139.875 33.664L139.875 28.624L141.923 28.624L141.923 40ZM137.715 38.4C139.059 38.4 139.891 37.36 139.891 36.064C139.891 34.768 139.075 33.728 137.715 33.728C136.371 33.728 135.539 34.768 135.539 36.064C135.539 37.36 136.387 38.4 137.715 38.4ZM151.199 34.496L149.487 34.496C149.423 33.76 148.623 33.504 147.503 33.504C146.527 33.488 145.695 33.84 145.775 34.528C145.919 35.936 151.407 34.544 151.391 37.632C151.375 39.648 149.423 40.112 147.775 40.112C145.167 40.112 143.871 39.008 143.839 37.376L145.599 37.376C145.663 38.224 146.927 38.496 147.631 38.512C148.239 38.544 149.583 38.368 149.583 37.664C149.583 36.304 143.935 37.616 143.935 34.416C143.935 32.8 145.231 31.936 147.551 31.936C149.983 31.936 151.119 32.928 151.199 34.496ZM159.161 43.248L157.113 43.248L157.113 32.112L159.113 32.112L159.113 33.872C159.593 32.912 160.633 32.112 161.721 32.048C163.801 31.92 165.577 33.472 165.577 36.064C165.577 38.384 164.233 39.984 162.009 40.08C160.825 40.144 159.625 39.28 159.161 38.368L159.161 43.248ZM161.321 38.4C162.665 38.4 163.513 37.36 163.513 36.064C163.513 34.768 162.681 33.728 161.321 33.728C159.993 33.728 159.145 34.784 159.145 36.064C159.145 37.36 159.977 38.4 161.321 38.4ZM173.989 40C173.205 39.984 172.389 39.552 172.373 38.56C172.021 39.536 171.141 40.064 170.085 40.16C168.549 40.304 166.821 39.632 166.709 37.968C166.565 35.792 168.389 35.296 170.133 35.296L172.373 35.296L172.373 34.48C172.373 33.824 171.701 33.472 170.645 33.472C169.669 33.456 168.981 33.808 168.981 34.528L167.157 34.528C167.109 32.624 168.709 31.936 170.597 31.936C172.981 31.936 174.389 32.848 174.389 34.304L174.389 38.016C174.389 38.368 174.549 38.608 174.901 38.608L175.013 38.608L175.013 40L173.989 40ZM168.661 37.6C168.597 38.464 169.301 38.784 170.149 38.784C171.061 38.768 172.149 38.208 172.373 37.28L172.373 36.448L170.341 36.464C169.573 36.48 168.741 36.624 168.661 37.6ZM176.581 40L176.581 32.128L178.597 32.128L178.597 34.24C178.965 32.784 179.893 32.08 181.013 32.08L182.245 32.08L182.245 33.888L180.725 33.92C179.589 33.936 178.629 35.04 178.629 36.256L178.629 40L176.581 40ZM189.895 40C189.111 39.984 188.295 39.552 188.279 38.56C187.927 39.536 187.047 40.064 185.991 40.16C184.455 40.304 182.727 39.632 182.615 37.968C182.471 35.792 184.295 35.296 186.039 35.296L188.279 35.296L188.279 34.48C188.279 33.824 187.607 33.472 186.551 33.472C185.575 33.456 184.887 33.808 184.887 34.528L183.063 34.528C183.015 32.624 184.615 31.936 186.503 31.936C188.887 31.936 190.295 32.848 190.295 34.304L190.295 38.016C190.295 38.368 190.455 38.608 190.807 38.608L190.919 38.608L190.919 40L189.895 40ZM184.567 37.6C184.503 38.464 185.207 38.784 186.055 38.784C186.967 38.768 188.055 38.208 188.279 37.28L188.279 36.448L186.247 36.464C185.479 36.48 184.647 36.624 184.567 37.6ZM204.314 40L202.314 40L202.314 38.4C201.818 39.504 200.57 40.08 199.722 40.08C197.354 40.08 195.866 38.464 195.866 36.064C195.866 33.648 197.354 32.048 199.722 32.048C200.554 32.048 201.754 32.512 202.266 33.664L202.266 28.624L204.314 28.624L204.314 40ZM200.106 38.4C201.45 38.4 202.282 37.36 202.282 36.064C202.282 34.768 201.466 33.728 200.106 33.728C198.762 33.728 197.93 34.768 197.93 36.064C197.93 37.36 198.778 38.4 200.106 38.4ZM212.213 37.472L214.005 37.472C213.781 39.536 212.005 40 210.117 40C207.669 40 205.973 38.688 205.973 36.032C205.973 34.432 206.789 32.016 210.165 32.016C212.885 32.016 214.181 33.776 214.117 36.496L207.893 36.496C207.909 37.648 208.741 38.448 210.213 38.448C211.669 38.448 212.085 37.92 212.213 37.472ZM207.925 35.504L212.229 35.504C212.149 34.464 211.525 33.696 210.053 33.696C208.837 33.696 208.037 34.496 207.925 35.504ZM219.655 38.32L219.655 39.984L218.215 40C216.999 40 216.215 39.552 216.215 38.064L216.215 33.744L214.935 33.744L214.935 32.144L216.247 32.144L216.247 30.112L218.263 30.112L218.263 32.144L219.831 32.144L219.831 33.744L218.263 33.744L218.263 37.504C218.263 38.336 218.407 38.352 219.655 38.32ZM228.161 40C227.377 39.984 226.561 39.552 226.545 38.56C226.193 39.536 225.313 40.064 224.257 40.16C222.721 40.304 220.993 39.632 220.881 37.968C220.737 35.792 222.561 35.296 224.305 35.296L226.545 35.296L226.545 34.48C226.545 33.824 225.873 33.472 224.817 33.472C223.841 33.456 223.153 33.808 223.153 34.528L221.329 34.528C221.281 32.624 222.881 31.936 224.769 31.936C227.153 31.936 228.561 32.848 228.561 34.304L228.561 38.016C228.561 38.368 228.721 38.608 229.073 38.608L229.185 38.608L229.185 40L228.161 40ZM222.833 37.6C222.769 38.464 223.473 38.784 224.321 38.784C225.233 38.768 226.321 38.208 226.545 37.28L226.545 36.448L224.513 36.464C223.745 36.48 222.913 36.624 222.833 37.6ZM232.816 40L230.768 40L230.768 28.544L232.816 28.544L232.816 40ZM237.129 40L235.081 40L235.081 28.64L237.129 28.64L237.129 33.872C237.833 32.72 238.937 32.112 239.785 32.064C242.329 31.888 242.889 33.76 242.889 35.504L242.889 40L240.825 40L240.825 35.664C240.825 34.48 240.329 33.776 239.161 33.776C237.801 33.776 237.129 34.64 237.129 35.952L237.129 40ZM250.682 37.472L252.474 37.472C252.25 39.536 250.474 40 248.586 40C246.138 40 244.442 38.688 244.442 36.032C244.442 34.432 245.258 32.016 248.634 32.016C251.354 32.016 252.65 33.776 252.586 36.496L246.362 36.496C246.378 37.648 247.21 38.448 248.682 38.448C250.138 38.448 250.554 37.92 250.682 37.472ZM246.394 35.504L250.698 35.504C250.618 34.464 249.994 33.696 248.522 33.696C247.306 33.696 246.506 34.496 246.394 35.504ZM261.339 34.496L259.627 34.496C259.563 33.76 258.763 33.504 257.643 33.504C256.667 33.488 255.835 33.84 255.915 34.528C256.059 35.936 261.547 34.544 261.531 37.632C261.515 39.648 259.563 40.112 257.915 40.112C255.307 40.112 254.011 39.008 253.979 37.376L255.739 37.376C255.803 38.224 257.067 38.496 257.771 38.512C258.379 38.544 259.723 38.368 259.723 37.664C259.723 36.304 254.075 37.616 254.075 34.416C254.075 32.8 255.371 31.936 257.691 31.936C260.123 31.936 261.259 32.928 261.339 34.496ZM265.122 36.88L263.634 36.88L263.378 29.824L265.41 29.824L265.122 36.88ZM264.402 40.08C263.794 40.08 263.25 39.648 263.25 39.024C263.25 38.384 263.794 37.968 264.402 37.968C265.026 37.968 265.522 38.384 265.522 39.024C265.522 39.648 265.01 40.08 264.402 40.08Z" fill="#FFD500"/>
</g>
</g>
<defs>
<clipPath id="clip0_760_3654">
<rect width="272" height="45" fill="white" transform="translate(280 54) rotate(-180)"/>
</clipPath>
</defs>
</svg>
