<svg width="576" height="64" viewBox="0 0 576 64" fill="none" xmlns="http://www.w3.org/2000/svg">
<g id="MessageTwo">
<g id=" " clip-path="url(#clip0_760_3650)">
<path id=" _2" d="M465.706 47.7398L39.3136 47.7398C35.2743 47.7398 32 46.3314 32 44.5946L32 13.1452C32 11.4079 35.2743 10 39.3136 10L536.685 10C540.724 10 544 11.4079 544 13.1452V44.5946C544 46.3314 540.724 47.7398 536.685 47.7398L499.475 47.7398L482.59 55L465.706 47.7398Z" fill="#5A007A"/>
<path id="Hey! How are you doi" d="M66.7404 34L66.0044 31.6L61.6364 31.6L60.8844 34L58.7404 34L62.1644 23.76L65.6524 23.76L68.9644 34L66.7404 34ZM62.0204 30.288L65.6364 30.288L63.9244 24.944L63.7484 24.944L62.0204 30.288ZM73.9879 32.4C74.9479 32.4 75.8599 32.176 76.0999 31.152L78.1479 31.12C77.8119 33.408 76.0039 34.08 73.9879 34.08C71.6359 34.08 69.7479 32.944 69.7479 30.064C69.7479 27.52 71.2359 26.048 73.9879 26.048C76.5959 26.048 77.8759 27.28 78.1799 29.248L76.1959 29.264C75.9879 28.048 75.1399 27.728 73.9879 27.728C72.6599 27.728 71.7319 28.272 71.7319 30.064C71.7319 31.84 72.6599 32.4 73.9879 32.4ZM85.518 31.472L87.31 31.472C87.086 33.536 85.31 34 83.422 34C80.974 34 79.278 32.688 79.278 30.032C79.278 28.432 80.094 26.016 83.47 26.016C86.19 26.016 87.486 27.776 87.422 30.496L81.198 30.496C81.214 31.648 82.046 32.448 83.518 32.448C84.974 32.448 85.39 31.92 85.518 31.472ZM81.23 29.504L85.534 29.504C85.454 28.464 84.83 27.696 83.358 27.696C82.142 27.696 81.342 28.496 81.23 29.504ZM96.1753 28.496L94.4633 28.496C94.3993 27.76 93.5993 27.504 92.4793 27.504C91.5033 27.488 90.6713 27.84 90.7513 28.528C90.8953 29.936 96.3833 28.544 96.3673 31.632C96.3513 33.648 94.3993 34.112 92.7513 34.112C90.1433 34.112 88.8473 33.008 88.8153 31.376L90.5753 31.376C90.6393 32.224 91.9033 32.496 92.6073 32.512C93.2153 32.544 94.5593 32.368 94.5593 31.664C94.5593 30.304 88.9113 31.616 88.9113 28.416C88.9113 26.8 90.2073 25.936 92.5273 25.936C94.9593 25.936 96.0953 26.928 96.1753 28.496ZM105.222 28.496L103.51 28.496C103.446 27.76 102.646 27.504 101.526 27.504C100.55 27.488 99.7181 27.84 99.7981 28.528C99.9421 29.936 105.43 28.544 105.414 31.632C105.398 33.648 103.446 34.112 101.798 34.112C99.1901 34.112 97.8941 33.008 97.8621 31.376L99.6221 31.376C99.6861 32.224 100.95 32.496 101.654 32.512C102.262 32.544 103.606 32.368 103.606 31.664C103.606 30.304 97.9581 31.616 97.9581 28.416C97.9581 26.8 99.2541 25.936 101.574 25.936C104.006 25.936 105.142 26.928 105.222 28.496ZM112.893 31.472L114.685 31.472C114.461 33.536 112.685 34 110.797 34C108.349 34 106.653 32.688 106.653 30.032C106.653 28.432 107.469 26.016 110.845 26.016C113.565 26.016 114.861 27.776 114.797 30.496L108.573 30.496C108.589 31.648 109.421 32.448 110.893 32.448C112.349 32.448 112.765 31.92 112.893 31.472ZM108.605 29.504L112.909 29.504C112.829 28.464 112.205 27.696 110.733 27.696C109.517 27.696 108.717 28.496 108.605 29.504ZM122.465 37.248L120.417 37.248L120.417 26.112L122.417 26.112L122.417 27.872C122.897 26.912 123.937 26.112 125.025 26.048C127.105 25.92 128.881 27.472 128.881 30.064C128.881 32.384 127.537 33.984 125.313 34.08C124.129 34.144 122.929 33.28 122.465 32.368L122.465 37.248ZM124.625 32.4C125.969 32.4 126.817 31.36 126.817 30.064C126.817 28.768 125.985 27.728 124.625 27.728C123.297 27.728 122.449 28.784 122.449 30.064C122.449 31.36 123.281 32.4 124.625 32.4ZM137.294 34C136.51 33.984 135.694 33.552 135.678 32.56C135.326 33.536 134.446 34.064 133.39 34.16C131.854 34.304 130.126 33.632 130.014 31.968C129.87 29.792 131.694 29.296 133.438 29.296L135.678 29.296L135.678 28.48C135.678 27.824 135.006 27.472 133.95 27.472C132.974 27.456 132.286 27.808 132.286 28.528L130.462 28.528C130.414 26.624 132.014 25.936 133.902 25.936C136.286 25.936 137.694 26.848 137.694 28.304L137.694 32.016C137.694 32.368 137.854 32.608 138.206 32.608L138.318 32.608L138.318 34L137.294 34ZM131.966 31.6C131.902 32.464 132.606 32.784 133.454 32.784C134.366 32.768 135.454 32.208 135.678 31.28L135.678 30.448L133.646 30.464C132.878 30.48 132.046 30.624 131.966 31.6ZM139.885 34L139.885 26.128L141.901 26.128L141.901 28.24C142.269 26.784 143.197 26.08 144.317 26.08L145.549 26.08L145.549 27.888L144.029 27.92C142.893 27.936 141.933 29.04 141.933 30.256L141.933 34L139.885 34ZM153.2 34C152.416 33.984 151.6 33.552 151.584 32.56C151.232 33.536 150.352 34.064 149.296 34.16C147.76 34.304 146.032 33.632 145.92 31.968C145.776 29.792 147.6 29.296 149.344 29.296L151.584 29.296L151.584 28.48C151.584 27.824 150.912 27.472 149.856 27.472C148.88 27.456 148.192 27.808 148.192 28.528L146.368 28.528C146.32 26.624 147.92 25.936 149.808 25.936C152.192 25.936 153.6 26.848 153.6 28.304L153.6 32.016C153.6 32.368 153.76 32.608 154.112 32.608L154.224 32.608L154.224 34L153.2 34ZM147.872 31.6C147.808 32.464 148.512 32.784 149.36 32.784C150.272 32.768 151.36 32.208 151.584 31.28L151.584 30.448L149.552 30.464C148.784 30.48 147.952 30.624 147.872 31.6ZM163.379 32.4C164.339 32.4 165.251 32.176 165.491 31.152L167.539 31.12C167.203 33.408 165.395 34.08 163.379 34.08C161.027 34.08 159.139 32.944 159.139 30.064C159.139 27.52 160.627 26.048 163.379 26.048C165.987 26.048 167.267 27.28 167.571 29.248L165.587 29.264C165.379 28.048 164.531 27.728 163.379 27.728C162.051 27.728 161.123 28.272 161.123 30.064C161.123 31.84 162.051 32.4 163.379 32.4ZM168.685 30.064C168.685 27.52 170.173 26.048 172.925 26.048C175.677 26.048 177.165 27.536 177.165 30.064C177.165 32.944 175.293 34.08 172.925 34.08C170.573 34.08 168.685 32.944 168.685 30.064ZM172.925 32.4C174.269 32.4 175.181 31.856 175.181 30.064C175.181 28.272 174.269 27.728 172.925 27.728C171.597 27.728 170.669 28.272 170.669 30.064C170.669 31.84 171.597 32.4 172.925 32.4ZM180.887 34L178.839 34L178.839 26.144L180.839 26.144L180.839 28.24C181.367 26.816 182.599 26.096 183.639 26.08C186.183 26.016 186.631 27.776 186.631 29.52L186.631 34L184.583 34L184.583 29.664C184.583 28.48 184.087 27.776 182.919 27.776C181.559 27.776 180.887 28.64 180.887 29.952L180.887 34ZM190.809 34L188.761 34L188.761 22.64L190.809 22.64L190.809 27.872C191.513 26.72 192.617 26.112 193.465 26.064C196.009 25.888 196.569 27.76 196.569 29.504L196.569 34L194.505 34L194.505 29.664C194.505 28.48 194.009 27.776 192.841 27.776C191.481 27.776 190.809 28.64 190.809 29.952L190.809 34ZM204.362 31.472L206.154 31.472C205.93 33.536 204.154 34 202.266 34C199.818 34 198.122 32.688 198.122 30.032C198.122 28.432 198.938 26.016 202.314 26.016C205.034 26.016 206.33 27.776 206.266 30.496L200.042 30.496C200.058 31.648 200.89 32.448 202.362 32.448C203.818 32.448 204.234 31.92 204.362 31.472ZM200.074 29.504L204.378 29.504C204.298 28.464 203.674 27.696 202.202 27.696C200.986 27.696 200.186 28.496 200.074 29.504ZM211.691 32.4C212.651 32.4 213.563 32.176 213.803 31.152L215.851 31.12C215.515 33.408 213.707 34.08 211.691 34.08C209.339 34.08 207.451 32.944 207.451 30.064C207.451 27.52 208.939 26.048 211.691 26.048C214.299 26.048 215.579 27.28 215.883 29.248L213.899 29.264C213.691 28.048 212.843 27.728 211.691 27.728C210.363 27.728 209.435 28.272 209.435 30.064C209.435 31.84 210.363 32.4 211.691 32.4ZM223.221 31.472L225.013 31.472C224.789 33.536 223.013 34 221.125 34C218.677 34 216.981 32.688 216.981 30.032C216.981 28.432 217.797 26.016 221.173 26.016C223.893 26.016 225.189 27.776 225.125 30.496L218.901 30.496C218.917 31.648 219.749 32.448 221.221 32.448C222.677 32.448 223.093 31.92 223.221 31.472ZM218.933 29.504L223.237 29.504C223.157 28.464 222.533 27.696 221.061 27.696C219.845 27.696 219.045 28.496 218.933 29.504ZM226.838 34L226.838 26.128L228.854 26.128L228.854 28.24C229.222 26.784 230.15 26.08 231.27 26.08L232.502 26.08L232.502 27.888L230.982 27.92C229.846 27.936 228.886 29.04 228.886 30.256L228.886 34L226.838 34ZM241.709 32.32L241.709 33.984L240.269 34C239.053 34 238.269 33.552 238.269 32.064L238.269 27.744L236.989 27.744L236.989 26.144L238.301 26.144L238.301 24.112L240.317 24.112L240.317 26.144L241.885 26.144L241.885 27.744L240.317 27.744L240.317 31.504C240.317 32.336 240.461 32.352 241.709 32.32ZM242.622 30.064C242.622 27.52 244.11 26.048 246.862 26.048C249.614 26.048 251.102 27.536 251.102 30.064C251.102 32.944 249.23 34.08 246.862 34.08C244.51 34.08 242.622 32.944 242.622 30.064ZM246.862 32.4C248.206 32.4 249.118 31.856 249.118 30.064C249.118 28.272 248.206 27.728 246.862 27.728C245.534 27.728 244.606 28.272 244.606 30.064C244.606 31.84 245.534 32.4 246.862 32.4ZM260.697 34L258.697 34L258.697 32.4C258.201 33.504 256.953 34.08 256.105 34.08C253.737 34.08 252.249 32.464 252.249 30.064C252.249 27.648 253.737 26.048 256.105 26.048C256.937 26.048 258.137 26.512 258.649 27.664L258.649 22.624L260.697 22.624L260.697 34ZM256.489 32.4C257.833 32.4 258.665 31.36 258.665 30.064C258.665 28.768 257.849 27.728 256.489 27.728C255.145 27.728 254.313 28.768 254.313 30.064C254.313 31.36 255.161 32.4 256.489 32.4ZM262.372 30.064C262.372 27.52 263.86 26.048 266.612 26.048C269.364 26.048 270.852 27.536 270.852 30.064C270.852 32.944 268.98 34.08 266.612 34.08C264.26 34.08 262.372 32.944 262.372 30.064ZM266.612 32.4C267.956 32.4 268.868 31.856 268.868 30.064C268.868 28.272 267.956 27.728 266.612 27.728C265.284 27.728 264.356 28.272 264.356 30.064C264.356 31.84 265.284 32.4 266.612 32.4ZM279.535 28.496L277.823 28.496C277.759 27.76 276.959 27.504 275.839 27.504C274.863 27.488 274.031 27.84 274.111 28.528C274.255 29.936 279.743 28.544 279.727 31.632C279.711 33.648 277.759 34.112 276.111 34.112C273.503 34.112 272.207 33.008 272.175 31.376L273.935 31.376C273.999 32.224 275.263 32.496 275.967 32.512C276.575 32.544 277.919 32.368 277.919 31.664C277.919 30.304 272.271 31.616 272.271 28.416C272.271 26.8 273.567 25.936 275.887 25.936C278.319 25.936 279.455 26.928 279.535 28.496ZM284.857 30.064C284.857 27.52 286.345 26.048 289.097 26.048C291.849 26.048 293.337 27.536 293.337 30.064C293.337 32.944 291.465 34.08 289.097 34.08C286.745 34.08 284.857 32.944 284.857 30.064ZM289.097 32.4C290.441 32.4 291.353 31.856 291.353 30.064C291.353 28.272 290.441 27.728 289.097 27.728C287.769 27.728 286.841 28.272 286.841 30.064C286.841 31.84 287.769 32.4 289.097 32.4ZM302.019 28.496L300.307 28.496C300.243 27.76 299.443 27.504 298.323 27.504C297.347 27.488 296.515 27.84 296.595 28.528C296.739 29.936 302.227 28.544 302.211 31.632C302.195 33.648 300.243 34.112 298.595 34.112C295.987 34.112 294.691 33.008 294.659 31.376L296.419 31.376C296.483 32.224 297.747 32.496 298.451 32.512C299.059 32.544 300.403 32.368 300.403 31.664C300.403 30.304 294.755 31.616 294.755 28.416C294.755 26.8 296.051 25.936 298.371 25.936C300.803 25.936 301.939 26.928 302.019 28.496ZM311.613 32.4C312.573 32.4 313.485 32.176 313.725 31.152L315.773 31.12C315.437 33.408 313.629 34.08 311.613 34.08C309.261 34.08 307.373 32.944 307.373 30.064C307.373 27.52 308.861 26.048 311.613 26.048C314.221 26.048 315.501 27.28 315.805 29.248L313.821 29.264C313.613 28.048 312.765 27.728 311.613 27.728C310.285 27.728 309.357 28.272 309.357 30.064C309.357 31.84 310.285 32.4 311.613 32.4ZM316.919 30.064C316.919 27.52 318.407 26.048 321.159 26.048C323.911 26.048 325.399 27.536 325.399 30.064C325.399 32.944 323.527 34.08 321.159 34.08C318.807 34.08 316.919 32.944 316.919 30.064ZM321.159 32.4C322.503 32.4 323.415 31.856 323.415 30.064C323.415 28.272 322.503 27.728 321.159 27.728C319.831 27.728 318.903 28.272 318.903 30.064C318.903 31.84 319.831 32.4 321.159 32.4ZM329.121 34L327.073 34L327.073 26.144L329.073 26.144L329.073 28.144C329.473 27.248 330.273 26.224 331.393 26.096C332.625 25.904 333.857 26.672 334.289 28.048C335.009 26.592 335.745 26.096 336.945 26.064C339.089 26 340.209 27.36 340.209 29.504L340.209 34L338.161 34L338.161 29.664C338.161 28.592 337.761 27.776 336.561 27.776C335.233 27.776 334.657 28.56 334.657 29.792L334.657 34L332.609 34L332.609 29.664C332.609 28.592 332.209 27.776 331.025 27.776C329.697 27.776 329.121 28.72 329.121 29.952L329.121 34ZM344.387 37.248L342.339 37.248L342.339 26.112L344.339 26.112L344.339 27.872C344.819 26.912 345.859 26.112 346.947 26.048C349.027 25.92 350.803 27.472 350.803 30.064C350.803 32.384 349.459 33.984 347.235 34.08C346.051 34.144 344.851 33.28 344.387 32.368L344.387 37.248ZM346.547 32.4C347.891 32.4 348.739 31.36 348.739 30.064C348.739 28.768 347.907 27.728 346.547 27.728C345.219 27.728 344.371 28.784 344.371 30.064C344.371 31.36 345.203 32.4 346.547 32.4ZM352.541 34L352.541 26.128L354.557 26.128L354.557 28.24C354.925 26.784 355.853 26.08 356.973 26.08L358.205 26.08L358.205 27.888L356.685 27.92C355.549 27.936 354.589 29.04 354.589 30.256L354.589 34L352.541 34ZM358.966 30.064C358.966 27.52 360.454 26.048 363.206 26.048C365.958 26.048 367.446 27.536 367.446 30.064C367.446 32.944 365.574 34.08 363.206 34.08C360.854 34.08 358.966 32.944 358.966 30.064ZM363.206 32.4C364.55 32.4 365.462 31.856 365.462 30.064C365.462 28.272 364.55 27.728 363.206 27.728C361.878 27.728 360.95 28.272 360.95 30.064C360.95 31.84 361.878 32.4 363.206 32.4ZM371.168 34L369.12 34L369.12 26.144L371.12 26.144L371.12 28.144C371.52 27.248 372.32 26.224 373.44 26.096C374.672 25.904 375.904 26.672 376.336 28.048C377.056 26.592 377.792 26.096 378.992 26.064C381.136 26 382.256 27.36 382.256 29.504L382.256 34L380.208 34L380.208 29.664C380.208 28.592 379.808 27.776 378.608 27.776C377.28 27.776 376.704 28.56 376.704 29.792L376.704 34L374.656 34L374.656 29.664C374.656 28.592 374.256 27.776 373.072 27.776C371.744 27.776 371.168 28.72 371.168 29.952L371.168 34ZM384.146 24.144C384.146 23.648 384.562 23.024 385.41 23.024C386.242 23.024 386.674 23.6 386.674 24.112C386.674 24.624 386.29 25.264 385.41 25.264C384.562 25.264 384.146 24.656 384.146 24.144ZM386.434 34L384.386 34L384.386 26.128L386.434 26.128L386.434 34ZM395.706 28.496L393.994 28.496C393.93 27.76 393.13 27.504 392.01 27.504C391.034 27.488 390.202 27.84 390.282 28.528C390.426 29.936 395.914 28.544 395.898 31.632C395.882 33.648 393.93 34.112 392.282 34.112C389.674 34.112 388.378 33.008 388.346 31.376L390.106 31.376C390.17 32.224 391.434 32.496 392.138 32.512C392.746 32.544 394.09 32.368 394.09 31.664C394.09 30.304 388.442 31.616 388.442 28.416C388.442 26.8 389.738 25.936 392.058 25.936C394.49 25.936 395.626 26.928 395.706 28.496ZM404.753 28.496L403.041 28.496C402.977 27.76 402.177 27.504 401.057 27.504C400.081 27.488 399.249 27.84 399.329 28.528C399.473 29.936 404.961 28.544 404.945 31.632C404.929 33.648 402.977 34.112 401.329 34.112C398.721 34.112 397.425 33.008 397.393 31.376L399.153 31.376C399.217 32.224 400.481 32.496 401.185 32.512C401.793 32.544 403.137 32.368 403.137 31.664C403.137 30.304 397.489 31.616 397.489 28.416C397.489 26.8 398.785 25.936 401.105 25.936C403.537 25.936 404.673 26.928 404.753 28.496ZM406.2 30.064C406.2 27.52 407.688 26.048 410.44 26.048C413.192 26.048 414.68 27.536 414.68 30.064C414.68 32.944 412.808 34.08 410.44 34.08C408.088 34.08 406.2 32.944 406.2 30.064ZM410.44 32.4C411.784 32.4 412.696 31.856 412.696 30.064C412.696 28.272 411.784 27.728 410.44 27.728C409.112 27.728 408.184 28.272 408.184 30.064C408.184 31.84 409.112 32.4 410.44 32.4ZM423.363 28.496L421.651 28.496C421.587 27.76 420.787 27.504 419.667 27.504C418.691 27.488 417.859 27.84 417.939 28.528C418.083 29.936 423.571 28.544 423.555 31.632C423.539 33.648 421.587 34.112 419.939 34.112C417.331 34.112 416.035 33.008 416.003 31.376L417.763 31.376C417.827 32.224 419.091 32.496 419.795 32.512C420.403 32.544 421.747 32.368 421.747 31.664C421.747 30.304 416.099 31.616 416.099 28.416C416.099 26.8 417.395 25.936 419.715 25.936C422.147 25.936 423.283 26.928 423.363 28.496ZM437.197 34L435.197 34L435.197 32.4C434.701 33.504 433.453 34.08 432.605 34.08C430.237 34.08 428.749 32.464 428.749 30.064C428.749 27.648 430.237 26.048 432.605 26.048C433.437 26.048 434.637 26.512 435.149 27.664L435.149 22.624L437.197 22.624L437.197 34ZM432.989 32.4C434.333 32.4 435.165 31.36 435.165 30.064C435.165 28.768 434.349 27.728 432.989 27.728C431.645 27.728 430.813 28.768 430.813 30.064C430.813 31.36 431.661 32.4 432.989 32.4ZM439.224 24.144C439.224 23.648 439.64 23.024 440.488 23.024C441.32 23.024 441.752 23.6 441.752 24.112C441.752 24.624 441.368 25.264 440.488 25.264C439.64 25.264 439.224 24.656 439.224 24.144ZM441.512 34L439.464 34L439.464 26.128L441.512 26.128L441.512 34ZM450.785 28.496L449.073 28.496C449.009 27.76 448.209 27.504 447.089 27.504C446.113 27.488 445.281 27.84 445.361 28.528C445.505 29.936 450.993 28.544 450.977 31.632C450.961 33.648 449.009 34.112 447.361 34.112C444.753 34.112 443.457 33.008 443.425 31.376L445.185 31.376C445.249 32.224 446.513 32.496 447.217 32.512C447.825 32.544 449.169 32.368 449.169 31.664C449.169 30.304 443.521 31.616 443.521 28.416C443.521 26.8 444.817 25.936 447.137 25.936C449.569 25.936 450.705 26.928 450.785 28.496ZM454.871 37.248L452.823 37.248L452.823 26.112L454.823 26.112L454.823 27.872C455.303 26.912 456.343 26.112 457.431 26.048C459.511 25.92 461.287 27.472 461.287 30.064C461.287 32.384 459.943 33.984 457.719 34.08C456.535 34.144 455.335 33.28 454.871 32.368L454.871 37.248ZM457.031 32.4C458.375 32.4 459.223 31.36 459.223 30.064C459.223 28.768 458.391 27.728 457.031 27.728C455.703 27.728 454.855 28.784 454.855 30.064C454.855 31.36 455.687 32.4 457.031 32.4ZM462.466 30.064C462.466 27.52 463.954 26.048 466.706 26.048C469.458 26.048 470.946 27.536 470.946 30.064C470.946 32.944 469.074 34.08 466.706 34.08C464.354 34.08 462.466 32.944 462.466 30.064ZM466.706 32.4C468.05 32.4 468.962 31.856 468.962 30.064C468.962 28.272 468.05 27.728 466.706 27.728C465.378 27.728 464.45 28.272 464.45 30.064C464.45 31.84 465.378 32.4 466.706 32.4ZM474.668 34L472.62 34L472.62 26.144L474.62 26.144L474.62 28.24C475.148 26.816 476.38 26.096 477.42 26.08C479.964 26.016 480.412 27.776 480.412 29.52L480.412 34L478.364 34L478.364 29.664C478.364 28.48 477.868 27.776 476.7 27.776C475.34 27.776 474.668 28.64 474.668 29.952L474.668 34ZM484.286 25.168L482.846 25.168L484.846 23.312L487.182 23.312L484.286 25.168ZM484.59 34L482.542 34L482.542 26.128L484.59 26.128L484.59 34ZM488.695 34L485.943 26.128L488.007 26.128L490.327 32.608L490.519 32.608L492.839 26.128L494.855 26.128L491.991 34L488.695 34ZM501.643 31.472L503.435 31.472C503.211 33.536 501.435 34 499.547 34C497.099 34 495.403 32.688 495.403 30.032C495.403 28.432 496.219 26.016 499.595 26.016C502.315 26.016 503.611 27.776 503.547 30.496L497.323 30.496C497.339 31.648 498.171 32.448 499.643 32.448C501.099 32.448 501.515 31.92 501.643 31.472ZM497.355 29.504L501.659 29.504C501.579 28.464 500.955 27.696 499.483 27.696C498.267 27.696 497.467 28.496 497.355 29.504ZM505.052 24.144C505.052 23.648 505.468 23.024 506.316 23.024C507.148 23.024 507.58 23.6 507.58 24.112C507.58 24.624 507.196 25.264 506.316 25.264C505.468 25.264 505.052 24.656 505.052 24.144ZM507.34 34L505.292 34L505.292 26.128L507.34 26.128L507.34 34ZM516.613 28.496L514.901 28.496C514.837 27.76 514.037 27.504 512.917 27.504C511.941 27.488 511.109 27.84 511.189 28.528C511.333 29.936 516.821 28.544 516.805 31.632C516.789 33.648 514.837 34.112 513.189 34.112C510.581 34.112 509.285 33.008 509.253 31.376L511.013 31.376C511.077 32.224 512.341 32.496 513.045 32.512C513.653 32.544 514.997 32.368 514.997 31.664C514.997 30.304 509.349 31.616 509.349 28.416C509.349 26.8 510.645 25.936 512.965 25.936C515.397 25.936 516.533 26.928 516.613 28.496Z" fill="#FFD500"/>
</g>
</g>
<defs>
<clipPath id="clip0_760_3650">
<rect width="512" height="45" fill="white" transform="translate(32 10)"/>
</clipPath>
</defs>
</svg>
