<svg width="288" height="64" viewBox="0 0 288 64" fill="none" xmlns="http://www.w3.org/2000/svg">
<g id="MessageOne">
<g id="Frame" clip-path="url(#clip0_760_3649)">
<path id="Union 1" d="M57.2294 16.4215L265.429 16.4215C267.401 16.4215 269 17.8612 269 19.6366L269 51.7849C269 53.5608 267.401 55 265.429 55L22.5717 55C20.5994 55 19 53.5608 19 51.7849L19 19.6366C19 17.8612 20.5994 16.4215 22.5717 16.4215L40.7408 16.4215L48.9854 8.99998L57.2294 16.4215Z" fill="#5A007A"/>
<path id="Hey! How are you doi" d="M50.3101 30.76L50.3101 41L47.0781 41L42.7421 32.712L42.7421 41L40.6301 41L40.6301 30.76L43.8941 30.76L48.2141 39.064L48.2141 30.76L50.3101 30.76ZM59.3951 41C58.6111 40.984 57.7951 40.552 57.7791 39.56C57.4271 40.536 56.5471 41.064 55.4911 41.16C53.9551 41.304 52.2271 40.632 52.1151 38.968C51.9711 36.792 53.7951 36.296 55.5391 36.296L57.7791 36.296L57.7791 35.48C57.7791 34.824 57.1071 34.472 56.0511 34.472C55.0751 34.456 54.3871 34.808 54.3871 35.528L52.5631 35.528C52.5151 33.624 54.1151 32.936 56.0031 32.936C58.3871 32.936 59.7951 33.848 59.7951 35.304L59.7951 39.016C59.7951 39.368 59.9551 39.608 60.3071 39.608L60.4191 39.608L60.4191 41L59.3951 41ZM54.0671 38.6C54.0031 39.464 54.7071 39.784 55.5551 39.784C56.4671 39.768 57.5551 39.208 57.7791 38.28L57.7791 37.448L55.7471 37.464C54.9791 37.48 54.1471 37.624 54.0671 38.6ZM63.7026 41L60.9506 33.128L63.0146 33.128L65.3346 39.608L65.5266 39.608L67.8466 33.128L69.8626 33.128L66.9986 41L63.7026 41ZM76.6508 38.472L78.4428 38.472C78.2188 40.536 76.4428 41 74.5548 41C72.1068 41 70.4108 39.688 70.4108 37.032C70.4108 35.432 71.2268 33.016 74.6028 33.016C77.3228 33.016 78.6188 34.776 78.5548 37.496L72.3308 37.496C72.3468 38.648 73.1788 39.448 74.6508 39.448C76.1068 39.448 76.5228 38.92 76.6508 38.472ZM72.3628 36.504L76.6668 36.504C76.5868 35.464 75.9628 34.696 74.4908 34.696C73.2748 34.696 72.4748 35.496 72.3628 36.504ZM80.7321 42.424L84.1081 42.424C85.3881 42.424 86.0921 42.344 86.1721 41.16C86.1721 41.128 86.1881 39.08 86.1881 39.016C85.7241 40.2 84.6841 40.808 83.7401 40.856C81.1161 41.016 79.7081 39 79.7081 36.952C79.7081 34.904 81.0681 32.952 83.7081 33.048C84.7961 33.08 85.6761 33.656 86.2681 34.936L86.2681 33.112L88.2521 33.112L88.2521 41.176C88.2521 43.224 87.1161 44.184 84.3961 44.184L80.7321 44.184L80.7321 42.424ZM84.0121 39.176C85.3081 39.176 86.2361 38.264 86.2361 36.952C86.2361 35.608 85.3241 34.728 84.0121 34.728C82.6841 34.728 81.7721 35.592 81.7721 36.952C81.7721 38.264 82.7001 39.176 84.0121 39.176ZM97.9298 41L95.9458 41L95.9458 39.208C95.5138 40.312 94.7298 41.048 93.4178 41.096C91.1298 41.16 90.1698 39.688 90.1698 37.624L90.1698 33.128L92.2178 33.128L92.2178 37.464C92.2178 38.584 92.5378 39.448 93.8978 39.448C95.2418 39.448 95.8658 38.616 95.8658 37.336L95.8658 33.128L97.9138 33.128L97.9298 41ZM105.713 38.472L107.505 38.472C107.281 40.536 105.505 41 103.617 41C101.169 41 99.4733 39.688 99.4733 37.032C99.4733 35.432 100.289 33.016 103.665 33.016C106.385 33.016 107.681 34.776 107.617 37.496L101.393 37.496C101.409 38.648 102.241 39.448 103.713 39.448C105.169 39.448 105.585 38.92 105.713 38.472ZM101.425 36.504L105.729 36.504C105.649 35.464 105.025 34.696 103.553 34.696C102.337 34.696 101.537 35.496 101.425 36.504ZM115.286 44.248L113.238 44.248L113.238 33.112L115.238 33.112L115.238 34.872C115.718 33.912 116.758 33.112 117.846 33.048C119.926 32.92 121.702 34.472 121.702 37.064C121.702 39.384 120.358 40.984 118.134 41.08C116.95 41.144 115.75 40.28 115.286 39.368L115.286 44.248ZM117.446 39.4C118.79 39.4 119.638 38.36 119.638 37.064C119.638 35.768 118.806 34.728 117.446 34.728C116.118 34.728 115.27 35.784 115.27 37.064C115.27 38.36 116.102 39.4 117.446 39.4ZM122.88 37.064C122.88 34.52 124.368 33.048 127.12 33.048C129.872 33.048 131.36 34.536 131.36 37.064C131.36 39.944 129.488 41.08 127.12 41.08C124.768 41.08 122.88 39.944 122.88 37.064ZM127.12 39.4C128.464 39.4 129.376 38.856 129.376 37.064C129.376 35.272 128.464 34.728 127.12 34.728C125.792 34.728 124.864 35.272 124.864 37.064C124.864 38.84 125.792 39.4 127.12 39.4ZM133.002 41L133.002 33.128L135.018 33.128L135.018 35.24C135.386 33.784 136.314 33.08 137.434 33.08L138.666 33.08L138.666 34.888L137.146 34.92C136.01 34.936 135.05 36.04 135.05 37.256L135.05 41L133.002 41ZM146.129 41L144.081 41L144.081 33.144L146.081 33.144L146.081 35.24C146.609 33.816 147.841 33.096 148.881 33.08C151.425 33.016 151.873 34.776 151.873 36.52L151.873 41L149.825 41L149.825 36.664C149.825 35.48 149.329 34.776 148.161 34.776C146.801 34.776 146.129 35.64 146.129 36.952L146.129 41ZM153.458 37.064C153.458 34.52 154.946 33.048 157.698 33.048C160.45 33.048 161.938 34.536 161.938 37.064C161.938 39.944 160.066 41.08 157.698 41.08C155.346 41.08 153.458 39.944 153.458 37.064ZM157.698 39.4C159.042 39.4 159.954 38.856 159.954 37.064C159.954 35.272 159.042 34.728 157.698 34.728C156.37 34.728 155.442 35.272 155.442 37.064C155.442 38.84 156.37 39.4 157.698 39.4ZM170.621 35.496L168.909 35.496C168.845 34.76 168.045 34.504 166.925 34.504C165.949 34.488 165.117 34.84 165.197 35.528C165.341 36.936 170.829 35.544 170.813 38.632C170.797 40.648 168.845 41.112 167.197 41.112C164.589 41.112 163.293 40.008 163.261 38.376L165.021 38.376C165.085 39.224 166.349 39.496 167.053 39.512C167.661 39.544 169.005 39.368 169.005 38.664C169.005 37.304 163.357 38.616 163.357 35.416C163.357 33.8 164.653 32.936 166.973 32.936C169.405 32.936 170.541 33.928 170.621 35.496ZM179.667 35.496L177.955 35.496C177.891 34.76 177.091 34.504 175.971 34.504C174.995 34.488 174.163 34.84 174.243 35.528C174.387 36.936 179.875 35.544 179.859 38.632C179.843 40.648 177.891 41.112 176.243 41.112C173.635 41.112 172.339 40.008 172.307 38.376L174.067 38.376C174.131 39.224 175.395 39.496 176.099 39.512C176.707 39.544 178.051 39.368 178.051 38.664C178.051 37.304 172.403 38.616 172.403 35.416C172.403 33.8 173.699 32.936 176.019 32.936C178.451 32.936 179.587 33.928 179.667 35.496ZM181.114 37.064C181.114 34.52 182.602 33.048 185.354 33.048C188.106 33.048 189.594 34.536 189.594 37.064C189.594 39.944 187.722 41.08 185.354 41.08C183.002 41.08 181.114 39.944 181.114 37.064ZM185.354 39.4C186.698 39.4 187.61 38.856 187.61 37.064C187.61 35.272 186.698 34.728 185.354 34.728C184.026 34.728 183.098 35.272 183.098 37.064C183.098 38.84 184.026 39.4 185.354 39.4ZM198.277 35.496L196.565 35.496C196.501 34.76 195.701 34.504 194.581 34.504C193.605 34.488 192.773 34.84 192.853 35.528C192.997 36.936 198.485 35.544 198.469 38.632C198.453 40.648 196.501 41.112 194.853 41.112C192.245 41.112 190.949 40.008 190.917 38.376L192.677 38.376C192.741 39.224 194.005 39.496 194.709 39.512C195.317 39.544 196.661 39.368 196.661 38.664C196.661 37.304 191.013 38.616 191.013 35.416C191.013 33.8 192.309 32.936 194.629 32.936C197.061 32.936 198.197 33.928 198.277 35.496ZM204.319 41L204.319 34.744L203.039 34.744L203.039 33.128L204.319 33.128L204.319 31.304C204.319 30.232 204.399 29.672 205.775 29.672L208.847 29.672L208.847 31.384L206.911 31.384C206.303 31.384 206.335 31.512 206.335 31.88L206.335 33.128L208.511 33.128L208.511 34.744L206.367 34.744L206.367 41L204.319 41ZM209.487 31.144C209.487 30.648 209.903 30.024 210.751 30.024C211.583 30.024 212.031 30.6 212.031 31.112C212.031 31.624 211.631 32.264 210.751 32.264C209.903 32.264 209.487 31.656 209.487 31.144ZM211.775 41L209.727 41L209.727 33.128L211.775 33.128L211.775 41ZM216.082 41L214.034 41L214.034 29.544L216.082 29.544L216.082 41ZM222.342 39.32L222.342 40.984L220.902 41C219.686 41 218.902 40.552 218.902 39.064L218.902 34.744L217.622 34.744L217.622 33.144L218.934 33.144L218.934 31.112L220.95 31.112L220.95 33.144L222.518 33.144L222.518 34.744L220.95 34.744L220.95 38.504C220.95 39.336 221.094 39.352 222.342 39.32ZM224.096 41L224.096 33.128L226.112 33.128L226.112 35.24C226.48 33.784 227.408 33.08 228.528 33.08L229.76 33.08L229.76 34.888L228.24 34.92C227.104 34.936 226.144 36.04 226.144 37.256L226.144 41L224.096 41ZM230.521 37.064C230.521 34.52 232.009 33.048 234.761 33.048C237.513 33.048 239.001 34.536 239.001 37.064C239.001 39.944 237.129 41.08 234.761 41.08C232.409 41.08 230.521 39.944 230.521 37.064ZM234.761 39.4C236.105 39.4 237.017 38.856 237.017 37.064C237.017 35.272 236.105 34.728 234.761 34.728C233.433 34.728 232.505 35.272 232.505 37.064C232.505 38.84 233.433 39.4 234.761 39.4ZM247.683 35.496L245.971 35.496C245.907 34.76 245.107 34.504 243.987 34.504C243.011 34.488 242.179 34.84 242.259 35.528C242.403 36.936 247.891 35.544 247.875 38.632C247.859 40.648 245.907 41.112 244.259 41.112C241.651 41.112 240.355 40.008 240.323 38.376L242.083 38.376C242.147 39.224 243.411 39.496 244.115 39.512C244.723 39.544 246.067 39.368 246.067 38.664C246.067 37.304 240.419 38.616 240.419 35.416C240.419 33.8 241.715 32.936 244.035 32.936C246.467 32.936 247.603 33.928 247.683 35.496Z" fill="#FFD500"/>
</g>
</g>
<defs>
<clipPath id="clip0_760_3649">
<rect width="250" height="45" fill="white" transform="translate(269 55) rotate(-180)"/>
</clipPath>
</defs>
</svg>
