<svg width="1440" height="350" viewBox="0 0 1440 350" fill="none" xmlns="http://www.w3.org/2000/svg">
<g clip-path="url(#clip0_593_3114)">
<path d="M-13600 175L-13480 198.3C-13360 222 -13120 268 -12880 245C-12640 222 -12400 128 -12160 93.3C-11920 58 -11680 82 -11440 116.7C-11200 152 -10960 198 -10720 180.8C-10480 163 -10240 82 -10000 70C-9760 58 -9520 117 -9280 151.7C-9040 187 -8800 198 -8560 175C-8320 152 -8080 93 -7840 110.8C-7600 128 -7360 222 -7120 268.3C-6880 315 -6640 315 -6400 291.7C-6160 268 -5920 222 -5680 204.2C-5440 187 -5200 198 -4960 180.8C-4720 163 -4480 117 -4240 105C-4000 93 -3760 117 -3520 151.7C-3280 187 -3040 233 -2800 210C-2560 187 -2320 93 -2080 64.2C-1840 35 -1600 70 -1360 93.3C-1120 117 -880 128 -640 128.3C-400 128 -160 117 80 140C320 163 560 222 800 245C1040 268 1280 257 1520 210C1760 163 2000 82 2240 75.8C2480 70 2720 140 2960 145.8C3200 152 3440 93 3560 64.2L3680 35V350H3560C3440 350 3200 350 2960 350C2720 350 2480 350 2240 350C2000 350 1760 350 1520 350C1280 350 1040 350 800 350C560 350 320 350 80 350C-160 350 -400 350 -640 350C-880 350 -1120 350 -1360 350C-1600 350 -1840 350 -2080 350C-2320 350 -2560 350 -2800 350C-3040 350 -3280 350 -3520 350C-3760 350 -4000 350 -4240 350C-4480 350 -4720 350 -4960 350C-5200 350 -5440 350 -5680 350C-5920 350 -6160 350 -6400 350C-6640 350 -6880 350 -7120 350C-7360 350 -7600 350 -7840 350C-8080 350 -8320 350 -8560 350C-8800 350 -9040 350 -9280 350C-9520 350 -9760 350 -10000 350C-10240 350 -10480 350 -10720 350C-10960 350 -11200 350 -11440 350C-11680 350 -11920 350 -12160 350C-12400 350 -12640 350 -12880 350C-13120 350 -13360 350 -13480 350H-13600V175Z" fill="url(#paint0_linear_593_3114)"/>
</g>
<defs>
<linearGradient id="paint0_linear_593_3114" x1="-13600" y1="350" x2="-13600" y2="35" gradientUnits="userSpaceOnUse">
<stop stop-color="#5A007A"/>
<stop offset="1" stop-color="#7600A0"/>
</linearGradient>
<clipPath id="clip0_593_3114">
<rect width="1440" height="350" fill="white"/>
</clipPath>
</defs>
</svg>
